HIERARCHY
ROOT Hips
{
	OFFSET 0.00000 0.00000 0.00000
	CHANNELS 6 Xposition Yposition Zposition Zrotation Yrotation Xrotation 
	JOINT LHipJoint
	{
		OFFSET 0 0 0
		CHANNELS 3 Zrotation Yrotation Xrotation
		JOINT LeftUpLeg
		{
			OFFSET 1.56857 -1.73443 1.15205
			CHANNELS 3 Zrotation Yrotation Xrotation
			JOINT LeftLeg
			{
				OFFSET 2.39362 -6.57643 0.00000
				CHANNELS 3 Zrotation Yrotation Xrotation
				JOINT LeftFoot
				{
					OFFSET 2.50952 -6.89485 0.00000
					CHANNELS 3 Zrotation Yrotation Xrotation
					JOINT LeftToeBase
					{
						OFFSET 0.17171 -0.47178 1.88682
						CHANNELS 3 Zrotation Yrotation Xrotation
						End Site
						{
							OFFSET 0.00000 -0.00000 0.98146
						}
					}
				}
			}
		}
	}
	JOINT RHipJoint
	{
		OFFSET 0 0 0
		CHANNELS 3 Zrotation Yrotation Xrotation
		JOINT RightUpLeg
		{
			OFFSET -1.28153 -1.73443 1.15205
			CHANNELS 3 Zrotation Yrotation Xrotation
			JOINT RightLeg
			{
				OFFSET -2.26861 -6.23296 0.00000
				CHANNELS 3 Zrotation Yrotation Xrotation
				JOINT RightFoot
				{
					OFFSET -2.54143 -6.98254 0.00000
					CHANNELS 3 Zrotation Yrotation Xrotation
					JOINT RightToeBase
					{
						OFFSET -0.23309 -0.64041 1.93119
						CHANNELS 3 Zrotation Yrotation Xrotation
						End Site
						{
							OFFSET -0.00000 -0.00000 1.02013
						}
					}
				}
			}
		}
	}
	JOINT LowerBack
	{
		OFFSET 0 0 0
		CHANNELS 3 Zrotation Yrotation Xrotation
		JOINT Spine
		{
			OFFSET -0.07096 2.10460 -0.27878
			CHANNELS 3 Zrotation Yrotation Xrotation
			JOINT Spine1
			{
				OFFSET -0.00826 2.13662 -0.08279
				CHANNELS 3 Zrotation Yrotation Xrotation
				JOINT Neck
				{
					OFFSET 0 0 0
					CHANNELS 3 Zrotation Yrotation Xrotation
					JOINT Neck1
					{
						OFFSET 0.03239 1.77799 0.24435
						CHANNELS 3 Zrotation Yrotation Xrotation
						JOINT Head
						{
							OFFSET 0.01026 1.74194 -0.49664
							CHANNELS 3 Zrotation Yrotation Xrotation
							End Site
							{
								OFFSET 0.00170 1.83057 -0.19653
							}
						}
					}
				}
				JOINT LeftShoulder
				{
					OFFSET 0 0 0
					CHANNELS 3 Zrotation Yrotation Xrotation
					JOINT LeftArm
					{
						OFFSET 3.19178 1.35907 -0.31412
						CHANNELS 3 Zrotation Yrotation Xrotation
						JOINT LeftForeArm
						{
							OFFSET 4.85247 -0.00000 -0.00000
							CHANNELS 3 Zrotation Yrotation Xrotation
							JOINT LeftHand
							{
								OFFSET 3.55584 -0.00000 0.00000
								CHANNELS 3 Zrotation Yrotation Xrotation
								JOINT LeftFingerBase
								{
									OFFSET 0 0 0
									CHANNELS 3 Zrotation Yrotation Xrotation
									JOINT LeftHandIndex1
									{
										OFFSET 0.69320 -0.00000 0.00000
										CHANNELS 3 Zrotation Yrotation Xrotation
										End Site
										{
											OFFSET 0.55888 -0.00000 0.00000
										}
									}
								}
								JOINT LThumb
								{
									OFFSET 0 0 0
									CHANNELS 3 Zrotation Yrotation Xrotation
									End Site
									{
										OFFSET 0.56741 -0.00000 0.56741
									}
								}
							}
						}
					}
				}
				JOINT RightShoulder
				{
					OFFSET 0 0 0
					CHANNELS 3 Zrotation Yrotation Xrotation
					JOINT RightArm
					{
						OFFSET -3.28999 1.24191 -0.26899
						CHANNELS 3 Zrotation Yrotation Xrotation
						JOINT RightForeArm
						{
							OFFSET -4.64462 -0.00000 0.00000
							CHANNELS 3 Zrotation Yrotation Xrotation
							JOINT RightHand
							{
								OFFSET -3.40703 -0.00000 0.00000
								CHANNELS 3 Zrotation Yrotation Xrotation
								JOINT RightFingerBase
								{
									OFFSET 0 0 0
									CHANNELS 3 Zrotation Yrotation Xrotation
									JOINT RightHandIndex1
									{
										OFFSET -0.61958 -0.00000 0.00000
										CHANNELS 3 Zrotation Yrotation Xrotation
										End Site
										{
											OFFSET -0.49952 -0.00000 0.00000
										}
									}
								}
								JOINT RThumb
								{
									OFFSET 0 0 0
									CHANNELS 3 Zrotation Yrotation Xrotation
									End Site
									{
										OFFSET -0.50715 -0.00000 0.50715
									}
								}
							}
						}
					}
				}
			}
		}
	}
}
MOTION
Frames: 7
Frame Time: .0083333
-29.4745 17.0174 1.1877 0 0 0 0 0 0 -21 0 0 0 0 0 0 0 0 0 0 0 0 0 0 21 0 0 0 0 0 0 0 0 0 0 0 0 0 0 0 0 0 0 0 0 0 0 -16 0 0 21 0 0 11 0 0 0 -8 0 0 0 0 0 0 0 0 0 0 0 0 0 0 0 0 0 0 0 0 8 0 0 0 0 0 0 0 0 0 0 0 0 0 0 0 0 0
-29.4745 17.0174 1.1877 38.6513 86.3141 38.2328 0.0000 0.0000 0.0000 -14.7139 2.7961 12.2000 0.0164 -0.8264 -2.2713 0.2144 8.9095 -16.0443 0.2147 -2.9832 -8.2321 0.0000 0.0000 0.0000 8.8776 -6.0750 8.0559 -0.0142 -0.7704 2.1174 -0.7429 1.1994 -15.9208 -0.0052 0.4662 -1.2811 -5.1011 1.7758 5.2014 -0.2907 2.0884 0.7322 2.4082 1.0916 -2.3318 3.4618 1.9735 -20.9260 -1.7397 2.3111 24.1231 -0.8385 1.2188 11.3827 -0.0000 0.0000 0.0000 -86.8420 1.8731 38.3376 12.4135 -20.4219 -2.2445 -0.0000 -0.0000 15.4358 19.8553 -25.6888 -8.8967 -7.1250 0.0000 -0.0000 -5.9663 3.0204 5.6750 -0.0000 0.0000 0.0000 86.2868 -4.8367 35.7411 -16.4092 26.0724 -3.8240 0.0000 0.0000 4.2375 -11.7113 -30.7917 6.0575 7.1250 -0.0000 -0.0000 22.7420 -59.8386 -8.5013
-29.4778 17.0161 1.1890 39.8705 86.2289 39.4381 0.0000 0.0000 0.0000 -14.8359 2.8290 12.1553 0.0158 -0.8106 -2.2279 0.2240 8.8062 -16.0575 0.1900 -2.8070 -7.7420 0.0000 0.0000 0.0000 8.7810 -5.9526 8.1035 -0.0140 -0.7631 2.0973 -0.7465 1.0973 -15.9881 -0.0059 0.4946 -1.3591 -5.2827 1.7732 5.2673 -0.2856 2.0707 0.7229 2.5143 1.0858 -2.3834 3.4053 1.9818 -20.9577 -1.7087 2.3336 24.1661 -0.8139 1.2279 11.4046 -0.0000 0.0000 0.0000 -86.9424 1.7843 38.0664 12.3115 -20.2702 -2.2090 -0.0000 -0.0000 15.6815 19.8026 -25.7703 -8.8973 -7.1250 0.0000 -0.0000 -6.0064 2.9456 5.7218 -0.0000 0.0000 0.0000 86.2566 -4.7979 35.7510 -16.3774 26.0297 -3.8101 0.0000 0.0000 4.2955 -11.7566 -30.8476 6.0913 7.1250 -0.0000 -0.0000 22.7400 -59.9001 -8.5341
-29.4776 17.0163 1.1891 39.7367 86.2142 39.3201 0.0000 0.0000 0.0000 -14.8450 2.7955 12.1423 0.0154 -0.8022 -2.2046 0.2378 8.7716 -16.2041 0.1662 -2.6265 -7.2405 0.0000 0.0000 0.0000 8.7457 -6.0244 8.0313 -0.0145 -0.7784 2.1393 -0.7464 1.1969 -15.9604 -0.0060 0.5003 -1.3747 -5.2703 1.7760 5.2588 -0.3037 2.0757 0.7294 2.4886 1.0878 -2.3713 3.3819 1.9858 -21.0469 -1.6386 2.3245 24.2154 -0.7850 1.2303 11.4391 0.0000 -0.0000 0.0000 -86.9623 1.6935 37.8406 12.2395 -20.1628 -2.1841 -0.0000 -0.0000 15.9241 20.5165 -25.7084 -9.2204 -7.1250 0.0000 -0.0000 -5.5677 2.8856 5.3058 0.0000 -0.0000 0.0000 86.2898 -4.7729 35.7713 -16.3833 26.0376 -3.8126 0.0000 0.0000 4.2443 -11.7831 -30.7128 6.0814 7.1250 -0.0000 -0.0000 22.6038 -59.7831 -8.4162
-29.4767 17.0170 1.1875 39.2374 86.1566 38.8485 0.0000 0.0000 0.0000 -14.8912 2.7704 12.1612 0.0163 -0.8246 -2.2663 0.2209 8.9735 -16.2033 0.1956 -2.8483 -7.8566 0.0000 0.0000 0.0000 8.6738 -6.1468 7.8948 -0.0158 -0.8117 2.2308 -0.7444 1.3756 -15.8908 -0.0065 0.5223 -1.4353 -5.2330 1.7973 5.2166 -0.3429 2.1081 0.7297 2.4261 1.1030 -2.3472 3.3987 1.9716 -21.0489 -1.6605 2.3088 24.2886 -0.7983 1.2232 11.4673 -0.0000 -0.0000 0.0000 -86.9396 1.6438 37.6657 12.1918 -20.0917 -2.1677 -0.0000 -0.0000 16.1880 20.8750 -25.6472 -9.3730 -7.1250 0.0000 -0.0000 -5.3441 2.8854 5.0909 -0.0000 -0.0000 0.0000 86.3235 -4.7841 35.8882 -16.4364 26.1087 -3.8360 0.0000 0.0000 4.1075 -11.8504 -30.8293 6.1376 7.1250 -0.0000 -0.0000 22.6277 -59.9051 -8.4921
-29.4770 17.0178 1.1865 40.2781 86.0535 39.8858 0.0000 0.0000 0.0000 -15.0555 2.7945 12.1643 0.0167 -0.8336 -2.2910 0.2045 9.0863 -16.1109 0.2119 -2.9633 -8.1767 0.0000 0.0000 0.0000 8.5053 -6.2063 7.8488 -0.0162 -0.8227 2.2610 -0.7411 1.4003 -15.8488 -0.0144 0.7755 -2.1312 -5.3187 1.8073 5.1969 -0.4025 2.1175 0.7381 2.4124 1.1079 -2.3290 3.5226 2.0163 -21.1214 -1.7346 2.3498 24.3534 -0.8393 1.2437 11.5101 -0.0000 -0.0000 0.0000 -86.8998 1.5736 37.6709 12.1365 -20.0091 -2.1488 -0.0000 -0.0000 16.2460 20.8872 -25.6353 -9.3749 -7.1250 0.0000 -0.0000 -5.3354 2.8956 5.0815 -0.0000 -0.0000 0.0000 86.3561 -4.8083 35.9434 -16.4853 26.1743 -3.8576 0.0000 0.0000 4.0715 -11.8562 -31.0593 6.1816 7.1250 -0.0000 -0.0000 22.8090 -60.1166 -8.6804
-29.4780 17.0172 1.1873 40.3256 86.0804 39.9125 0.0000 0.0000 0.0000 -14.9025 3.1046 11.9643 0.0140 -0.7629 -2.0966 0.2276 8.6640 -15.9486 0.1819 -2.7468 -7.5746 0.0000 0.0000 0.0000 8.5399 -6.2091 7.8847 -0.0159 -0.8137 2.2365 -0.7388 1.3275 -15.8419 -0.0268 1.0576 -2.9074 -5.2614 1.8172 5.2093 -0.4457 2.1331 0.7503 2.3344 1.1148 -2.3208 3.5546 1.9985 -21.0148 -1.7168 2.3125 24.3041 -0.8447 1.2330 11.4698 0.0000 0.0000 0.0000 -86.7354 1.5882 38.0993 12.1971 -20.0996 -2.1696 -0.0000 -0.0000 15.8562 20.9917 -25.6496 -9.4302 -7.1250 0.0000 -0.0000 -5.2736 2.8622 5.0254 0.0000 0.0000 0.0000 86.4792 -4.8132 35.7567 -16.4773 26.1636 -3.8540 0.0000 0.0000 4.2151 -11.8428 -30.9140 6.1487 7.1250 -0.0000 -0.0000 22.7041 -59.9808 -8.5639
